<?xml version="1.0" encoding="UTF-8" standalone="no"?>
<svg
   xmlns:dc="http://purl.org/dc/elements/1.1/"
   xmlns:cc="http://creativecommons.org/ns#"
   xmlns:rdf="http://www.w3.org/1999/02/22-rdf-syntax-ns#"
   xmlns:svg="http://www.w3.org/2000/svg"
   xmlns="http://www.w3.org/2000/svg"
   xmlns:sodipodi="http://sodipodi.sourceforge.net/DTD/sodipodi-0.dtd"
   xmlns:inkscape="http://www.inkscape.org/namespaces/inkscape"
   viewBox="0 0 126.80092 74.002037"
   version="1.1"
   id="svg15"
   sodipodi:docname="logo.svg"
   width="126.80093"
   height="74.002037"
   inkscape:version="0.92.1 r15371">
  <metadata
     id="metadata19">
    <rdf:RDF>
      <cc:Work
         rdf:about="">
        <dc:format>image/svg+xml</dc:format>
        <dc:type
           rdf:resource="http://purl.org/dc/dcmitype/StillImage" />
        <dc:title />
      </cc:Work>
    </rdf:RDF>
  </metadata>
  <sodipodi:namedview
     pagecolor="#ffffff"
     bordercolor="#666666"
     borderopacity="1"
     objecttolerance="10"
     gridtolerance="10"
     guidetolerance="10"
     inkscape:pageopacity="0"
     inkscape:pageshadow="2"
     inkscape:window-width="1920"
     inkscape:window-height="1017"
     id="namedview17"
     showgrid="false"
     fit-margin-top="0"
     fit-margin-left="0"
     fit-margin-right="0"
     fit-margin-bottom="0"
     inkscape:zoom="7.8071156"
     inkscape:cx="67.261913"
     inkscape:cy="28.076996"
     inkscape:window-x="-8"
     inkscape:window-y="-8"
     inkscape:window-maximized="1"
     inkscape:current-layer="svg15" />
  <defs
     id="defs7">
    <style
       id="style2">.a{fill:none;}.b{clip-path:url(#a);}.c{fill:#fff;}</style>
    <clipPath
       id="a">
      <path
         class="a"
         d="m 0,-134.58 h 126.8 v 74 H 0 Z"
         transform="translate(0,134.58)"
         id="path4"
         inkscape:connector-curvature="0"
         style="fill:none" />
    </clipPath>
  </defs>
  <path
     style="fill:#28c7e8;stroke:none;stroke-width:1px;stroke-linecap:butt;stroke-linejoin:miter;stroke-opacity:1;fill-opacity:1"
     d="m 9.0942678,41.595703 c 0,0 9.3504442,-14.602064 14.6020632,-16.523388 5.25162,-1.921324 34.840012,0.512353 34.840012,0.512353 l 14.473976,-9.862798 8.966179,1.408971 -0.896618,11.271769 7.044856,0.896618 34.711924,-0.896618 -0.64044,10.759415 c 0,0 0.51235,5.25162 -6.91677,12.552652 -7.42912,7.301031 -18.508115,-2.90125 -18.508115,-2.90125 l -1.34,-0.166 L 84.538264,52.867471 68.527229,50.049529 57.25546,50.433794 H 35.992806 l -0.872471,-1.862367 -3.098265,0.325307 -20.366037,5.123532 z"
     id="path4485"
     inkscape:connector-curvature="0" />
  <path
     class="c"
     d="m 34.289335,48.568427 c -4.557,6.144 -8.722,12.315 -12.471,18.443 l -0.026,0.038 a 4.117,4.117 0 0 1 -2.644,1.816 4.445,4.445 0 0 1 -2.343,-0.075 l -0.08,-0.026 a 35.377,35.377 0 0 1 -8.1929995,-3.917 34.266,34.266 0 0 1 -7.85400001,-6.875 l -0.012,-0.017 a 2.757,2.757 0 0 1 -0.592,-1.156 2.8,2.8 0 0 1 0.328,-2.087 l 0.065,-0.108 a 169.49,169.49 0 0 1 9.49400001,-14.593 q 1.1839995,-1.634 2.3999995,-3.224 v 11.784 h 5.825 v -13.557 a 8.266,8.266 0 0 1 2.571,-0.407 c 1.929,0 2.723,0.777 2.723,2.666 v 11.3 h 5.824 v -11.485 a 6.5,6.5 0 0 0 -0.227,-1.963 6.577,6.577 0 0 1 2.61,-0.518 c 1.816,0 2.61,0.777 2.61,2.592 z m 92.306005,-18.974 -0.013,0.04 a 92.074,92.074 0 0 1 -4.74,12.259 c -0.393,-1.695 -1.7,-2.82 -4.631,-4.137 -0.983,-0.445 -1.74,-0.815 -2.307,-1.075 a 2.113,2.113 0 0 1 -0.642,-0.407 1,1 0 0 1 -0.3,-0.7 c 0,-0.778 0.908,-1.222 2.534,-1.222 a 10.693,10.693 0 0 1 4.8,1.185 v -4.518 a 12.991,12.991 0 0 0 -5.219,-1.037 c -4.84,0 -7.79,2.185 -7.79,5.741 0,2.593 1.135,3.926 4.727,5.556 l 2.347,1.069 c 0.642,0.26 0.945,0.63 0.945,1.111 0,0.741 -0.832,1.148 -2.382,1.148 a 12.254,12.254 0 0 1 -5.635,-1.444 v 4.706 a 14.335,14.335 0 0 0 5.825,1.11 12.6,12.6 0 0 0 4.331,-0.65 85.832,85.832 0 0 1 -15.377,19.156 l -0.033,0.026 a 3.833,3.833 0 0 1 -1.78,0.933 3.657,3.657 0 0 1 -2.753005,-0.4 l -0.028,-0.013 a 21.8,21.8 0 0 1 -8.08,-7.565 l -0.008,-0.016 a 2.722,2.722 0 0 1 -0.34,-0.807 2.75,2.75 0 0 1 0.515,-2.314 c 0,0 2.987,-4 6.21,-8.516 0.434,0.034 0.894,0.052 1.38,0.052 a 65.349,65.349 0 0 0 8.320005,-0.63 v -11.591 c 0,-2.37 -0.151,-3.481 -0.643,-4.333 -0.871,-1.52 -2.837,-2.3 -5.824,-2.3 a 17.836,17.836 0 0 0 -7.716005,1.7 v 4.418 a 15.5,15.5 0 0 1 6.845,-1.74 c 1.474005,0 2.000005,0.371 2.000005,1.407 v 1.26 c -7.148005,0.592 -10.060005,2.444 -10.060005,6.444 0,2.929 1.373,4.583 4.358,5.147 a 177.347,177.347 0 0 0 -11.057,14.163 q -3.3,4.635 -6.285,9.316 l -0.017,0.028 a 4.025,4.025 0 0 1 -2.55,1.728 4.282,4.282 0 0 1 -2.4,-0.114 l -0.078,-0.03 a 35.134,35.134 0 0 1 -5.654,-2.82 32.937,32.937 0 0 1 -8.351,-7.219 l -0.022,-0.026 a 2.7,2.7 0 0 1 -0.56,-1.106 2.7,2.7 0 0 1 0.235,-1.877 l 0.042,-0.087 c 1.122,-2.1 2.348,-4.169 3.594,-6.257 q 0.764,-1.279 1.556,-2.526 l 0.079,-0.119 a 0.239,0.239 0 0 0 0.052,-0.15 0.249,0.249 0 0 0 -0.252,-0.246 0.254,0.254 0 0 0 -0.209,0.108 l -0.029,0.033 c -4.336,5.689 -8.317,11.431 -11.929,17.167 l -0.065,0.105 a 4.1,4.1 0 0 1 -2.6,1.763 4.465,4.465 0 0 1 -2.165,-0.027 l -0.066,-0.017 c -0.019,0 -0.038,-0.012 -0.057,-0.018 a 36.675,36.675 0 0 1 -3.476,-1.28 31.389,31.389 0 0 1 -12.513,-9.232 l -0.049,-0.063 a 2.738,2.738 0 0 1 -0.475,-1.008 2.761,2.761 0 0 1 0.3,-2.032 l 0.013,-0.025 c 1.432,-2.661 2.994,-5.439 4.677,-8.208 h 4.988 v -11.631 c 0,-2.593 -0.454,-4 -1.664,-5.148 -1.248,-1.185 -3.177,-1.778 -5.748,-1.778 a 16.6,16.6 0 0 0 -6.543,1.3 9.983,9.983 0 0 0 -5.522,-1.3 26.952,26.952 0 0 0 -2.99,0.163 150.382,150.382 0 0 1 31.127,-28.2199998 14.751,14.751 0 0 1 3.95,-1.91599997 c 1.772,-0.358 4.619,1.72199997 4.619,1.72199997 q 1.5,1 2.958,2.184 a 34.664,34.664 0 0 1 6.173,6.5099998 l 0.015,0.021 a 1.648,1.648 0 0 1 0.28,0.92 1.652,1.652 0 0 1 -0.5,1.181 c 0,0 -6.229,6 -9.286,9.174 l -0.023,0.027 a 0.243,0.243 0 0 0 -0.068,0.168 0.251,0.251 0 0 0 0.253,0.248 0.262,0.262 0 0 0 0.164,-0.06 l 0.013,-0.012 a 121.215,121.215 0 0 1 18.7,-13.9999998 19.123,19.123 0 0 1 4.062,-1.758 c 1.6,-0.295 4.2,1.633 4.2,1.633 0.984,0.649 1.992,1.36 2.942,2.1299998 a 34.464,34.464 0 0 1 6.067,6.306 l 0.018,0.026 a 1.637,1.637 0 0 1 0.287,0.926 1.637,1.637 0 0 1 -0.525,1.2 c 0,0 -5.586,5.78 -8.474,8.672 l -0.057,0.054 a 0.253,0.253 0 0 0 -0.067,0.169 0.249,0.249 0 0 0 0.252,0.248 0.255,0.255 0 0 0 0.168,-0.063 c 0,0 14.466,-12.738 18.498005,-13.368 5.978,-0.933 21.688,7.943 23.15,12.278 a 4.987,4.987 0 0 1 0.058,3.017 m -69.842005,7.05 c 0,-2.37 -0.151,-3.481 -0.643,-4.333 -0.87,-1.52 -2.836,-2.3 -5.824,-2.3 a 17.828,17.828 0 0 0 -7.715,1.7 v 4.418 a 15.5,15.5 0 0 1 6.845,-1.74 c 1.475,0 2,0.371 2,1.407 v 1.26 c -7.144,0.588 -10.055,2.44 -10.055,6.44 0,3.7 2.193,5.371 7.072,5.371 a 65.364,65.364 0 0 0 8.32,-0.63 z m 13.908,-6.261 a 12.967,12.967 0 0 0 -3.28,-0.369 24.727,24.727 0 0 0 -8.85,1.741 v 16.816 h 5.823 v -13.112 a 11.035,11.035 0 0 1 3.669,-0.593 9.774,9.774 0 0 1 2.638,0.338 z m 15.528,10.928 -1.511,-2.149 -0.416,-0.592 c 2.155,-2.334 4.274,-4.852 6.164,-7.333 l 0.605,-0.815 h -6.47 a 81.728,81.728 0 0 1 -5.938,7.223 l -0.454,0.519 v -17.373 h -5.82 v 27.78 h 5.824 v -9.519 l 0.493,0.778 a 101.686,101.686 0 0 0 6.24,8.741 h 7 c -1.7,-1.926 -3.971,-4.815 -5.712,-7.26 m 15.210005,3.3 v -3.815 c -3.857005,0.371 -5.106005,0.963 -5.106005,2.445 0,1.111 0.72,1.629 2.308,1.629 a 16.377,16.377 0 0 0 2.800005,-0.26 m -54.820005,-1.37 c 0,1.111 0.718,1.629 2.307,1.629 a 16.378,16.378 0 0 0 2.8,-0.26 v -3.815 c -3.857,0.371 -5.105,0.963 -5.105,2.445"
     id="path9"
     inkscape:connector-curvature="0"
     style="fill:#fff" />
</svg>
